REM DIRINDEX 1\2\6,1\2\7,1\2\8,1\3\9,1\3\10,1\3\11,1\4\12,1\4\13,1\4\14,1\5\15,1\5\16,1\5\17,1\5\18
REM DIRNAME folder01,folder02,folder03,folder04,folder05,folder06,folder07,folder08,folder09,folder10,folder11,folder12,folder13,folder14,folder15,folder16,folder17,folder18
TITLE ""
FILE "" MP3
  TRACK 01 AUDIO
    TITLE "16:cjc019_4950"
    INDEX 01 00:00:00
  TRACK 02 AUDIO
    TITLE "0:"
    INDEX 01 00:00:74
  TRACK 03 AUDIO
    TITLE "18:cjc019_4951"
    INDEX 01 00:01:58
  TRACK 04 AUDIO
    TITLE "0:"
    INDEX 01 00:04:44
  TRACK 05 AUDIO
    TITLE "17:cjc019_4952"
    INDEX 01 00:05:22
  TRACK 06 AUDIO
    TITLE "0:"
    INDEX 01 00:06:33
  TRACK 07 AUDIO
    TITLE "16:cjc019_4953"
    INDEX 01 00:08:15
  TRACK 08 AUDIO
    TITLE "0:"
    INDEX 01 00:09:28
  TRACK 09 AUDIO
    TITLE "18:cjc019_4954"
    INDEX 01 00:10:16
  TRACK 10 AUDIO
    TITLE "0:"
    INDEX 01 00:13:20
  TRACK 11 AUDIO
    TITLE "17:cjc019_4955"
    INDEX 01 00:14:00
  TRACK 12 AUDIO
    TITLE "0:"
    INDEX 01 00:15:19
  TRACK 13 AUDIO
    TITLE "16:cjc019_4956"
    INDEX 01 00:17:06
  TRACK 14 AUDIO
    TITLE "0:"
    INDEX 01 00:18:17
  TRACK 15 AUDIO
    TITLE "18:cjc019_4957"
    INDEX 01 00:18:72
  TRACK 16 AUDIO
    TITLE "0:"
    INDEX 01 00:22:74
  TRACK 17 AUDIO
    TITLE "17:cjc019_4958"
    INDEX 01 00:23:48
  TRACK 18 AUDIO
    TITLE "0:"
    INDEX 01 00:24:59
  TRACK 19 AUDIO
    TITLE "16:cjc019_4959"
    INDEX 01 00:26:34
  TRACK 20 AUDIO
    TITLE "0:"
    INDEX 01 00:27:61
  TRACK 21 AUDIO
    TITLE "18:cjc019_4960"
    INDEX 01 00:28:39
  TRACK 22 AUDIO
    TITLE "0:"
    INDEX 01 00:31:61
  TRACK 23 AUDIO
    TITLE "17:cjc019_4961"
    INDEX 01 00:32:43
  TRACK 24 AUDIO
    TITLE "0:"
    INDEX 01 00:33:68
  TRACK 25 AUDIO
    TITLE "16:cjc019_4962"
    INDEX 01 00:35:51
  TRACK 26 AUDIO
    TITLE "0:"
    INDEX 01 00:36:68
  TRACK 27 AUDIO
    TITLE "18:cjc019_4963"
    INDEX 01 00:37:52
  TRACK 28 AUDIO
    TITLE "0:"
    INDEX 01 00:40:11
  TRACK 29 AUDIO
    TITLE "17:cjc019_4964"
    INDEX 01 00:40:68
  TRACK 30 AUDIO
    TITLE "0:"
    INDEX 01 00:42:10
  TRACK 31 AUDIO
    TITLE "16:cjc019_4965"
    INDEX 01 00:43:70
  TRACK 32 AUDIO
    TITLE "0:"
    INDEX 01 00:45:14
  TRACK 33 AUDIO
    TITLE "18:cjc019_4966"
    INDEX 01 00:46:02
  TRACK 34 AUDIO
    TITLE "0:"
    INDEX 01 00:48:38
  TRACK 35 AUDIO
    TITLE "17:cjc019_4967"
    INDEX 01 00:49:21
  TRACK 36 AUDIO
    TITLE "0:"
    INDEX 01 00:50:44
  TRACK 37 AUDIO
    TITLE "16:cjc019_4968"
    INDEX 01 00:52:24
  TRACK 38 AUDIO
    TITLE "0:"
    INDEX 01 00:53:35
  TRACK 39 AUDIO
    TITLE "18:cjc019_4969"
    INDEX 01 00:54:19
  TRACK 40 AUDIO
    TITLE "0:"
    INDEX 01 00:56:59
  TRACK 41 AUDIO
    TITLE "17:cjc019_4970"
    INDEX 01 00:57:35
  TRACK 42 AUDIO
    TITLE "0:"
    INDEX 01 00:58:44
  TRACK 43 AUDIO
    TITLE "16:cjc019_4971"
    INDEX 01 01:00:29
  TRACK 44 AUDIO
    TITLE "0:"
    INDEX 01 01:01:38
  TRACK 45 AUDIO
    TITLE "18:cjc019_4972"
    INDEX 01 01:02:24
  TRACK 46 AUDIO
    TITLE "0:"
    INDEX 01 01:04:58
  TRACK 47 AUDIO
    TITLE "17:cjc019_4973"
    INDEX 01 01:05:32
  TRACK 48 AUDIO
    TITLE "0:"
    INDEX 01 01:06:43
  TRACK 49 AUDIO
    TITLE "16:cjc019_4974"
    INDEX 01 01:08:29
  TRACK 50 AUDIO
    TITLE "0:"
    INDEX 01 01:09:50
  TRACK 51 AUDIO
    TITLE "18:cjc019_4975"
    INDEX 01 01:10:28
  TRACK 52 AUDIO
    TITLE "0:"
    INDEX 01 01:13:06
  TRACK 53 AUDIO
    TITLE "17:cjc019_4976"
    INDEX 01 01:13:61
  TRACK 54 AUDIO
    TITLE "0:"
    INDEX 01 01:15:11
  TRACK 55 AUDIO
    TITLE "16:cjc019_4977"
    INDEX 01 01:16:67
  TRACK 56 AUDIO
    TITLE "0:"
    INDEX 01 01:18:02
  TRACK 57 AUDIO
    TITLE "18:cjc019_4978"
    INDEX 01 01:18:58
  TRACK 58 AUDIO
    TITLE "0:"
    INDEX 01 01:21:14
  TRACK 59 AUDIO
    TITLE "17:cjc019_4979"
    INDEX 01 01:21:65
  TRACK 60 AUDIO
    TITLE "0:"
    INDEX 01 01:22:74
  TRACK 61 AUDIO
    TITLE "16:cjc019_4980"
    INDEX 01 01:24:57
  TRACK 62 AUDIO
    TITLE "0:"
    INDEX 01 01:26:32
  TRACK 63 AUDIO
    TITLE "18:cjc019_4981"
    INDEX 01 01:27:12
  TRACK 64 AUDIO
    TITLE "0:"
    INDEX 01 01:28:25
  TRACK 65 AUDIO
    TITLE "17:cjc019_4982"
    INDEX 01 01:28:74
  TRACK 66 AUDIO
    TITLE "0:"
    INDEX 01 01:30:44
  TRACK 67 AUDIO
    TITLE "16:cjc019_4983"
    INDEX 01 01:32:29
  TRACK 68 AUDIO
    TITLE "0:"
    INDEX 01 01:33:50
  TRACK 69 AUDIO
    TITLE "18:cjc019_4984"
    INDEX 01 01:34:32
  TRACK 70 AUDIO
    TITLE "0:"
    INDEX 01 01:38:26
  TRACK 71 AUDIO
    TITLE "17:cjc019_4985"
    INDEX 01 01:39:06
  TRACK 72 AUDIO
    TITLE "0:"
    INDEX 01 01:40:31
  TRACK 73 AUDIO
    TITLE "16:cjc019_4986"
    INDEX 01 01:42:14
  TRACK 74 AUDIO
    TITLE "0:"
    INDEX 01 01:43:56
  TRACK 75 AUDIO
    TITLE "18:cjc019_4987"
    INDEX 01 01:44:38
  TRACK 76 AUDIO
    TITLE "0:"
    INDEX 01 01:45:26
  TRACK 77 AUDIO
    TITLE "17:cjc019_4988"
    INDEX 01 01:46:10
  TRACK 78 AUDIO
    TITLE "0:"
    INDEX 01 01:47:56
  TRACK 79 AUDIO
    TITLE "16:cjc019_4989"
    INDEX 01 01:49:39
  TRACK 80 AUDIO
    TITLE "0:"
    INDEX 01 01:50:74
  TRACK 81 AUDIO
    TITLE "18:cjc019_4990"
    INDEX 01 01:51:54
  TRACK 82 AUDIO
    TITLE "0:"
    INDEX 01 01:54:70
  TRACK 83 AUDIO
    TITLE "17:cjc019_4991"
    INDEX 01 01:55:50
  TRACK 84 AUDIO
    TITLE "0:"
    INDEX 01 01:57:13
  TRACK 85 AUDIO
    TITLE "16:cjc019_4992"
    INDEX 01 01:58:68
  TRACK 86 AUDIO
    TITLE "0:"
    INDEX 01 02:00:20
  TRACK 87 AUDIO
    TITLE "18:cjc019_4993"
    INDEX 01 02:00:69
  TRACK 88 AUDIO
    TITLE "0:"
    INDEX 01 02:03:14
  TRACK 89 AUDIO
    TITLE "17:cjc019_4994"
    INDEX 01 02:03:69
  TRACK 90 AUDIO
    TITLE "0:"
    INDEX 01 02:05:19
  TRACK 91 AUDIO
    TITLE "16:cjc019_4995"
    INDEX 01 02:07:04
  TRACK 92 AUDIO
    TITLE "0:"
    INDEX 01 02:08:21
  TRACK 93 AUDIO
    TITLE "18:cjc019_4996"
    INDEX 01 02:09:05
  TRACK 94 AUDIO
    TITLE "0:"
    INDEX 01 02:12:62
  TRACK 95 AUDIO
    TITLE "17:cjc019_4997"
    INDEX 01 02:13:40
  TRACK 96 AUDIO
    TITLE "0:"
    INDEX 01 02:14:53
  TRACK 97 AUDIO
    TITLE "16:cjc019_4998"
    INDEX 01 02:16:38
  TRACK 98 AUDIO
    TITLE "0:"
    INDEX 01 02:17:49
  TRACK 99 AUDIO
    TITLE "18:cjc019_4999"
    INDEX 01 02:18:31
  TRACK 100 AUDIO
    TITLE "0:"
    INDEX 01 02:21:10
  TRACK 101 AUDIO
    TITLE "17:cjc019_5000"
    INDEX 01 02:21:63
  TRACK 102 AUDIO
    TITLE "0:"
    INDEX 01 02:22:74
  TRACK 103 AUDIO
    TITLE "16:cjc019_5001"
    INDEX 01 02:24:57
  TRACK 104 AUDIO
    TITLE "0:"
    INDEX 01 02:26:11
  TRACK 105 AUDIO
    TITLE "18:cjc019_5002"
    INDEX 01 02:26:68
  TRACK 106 AUDIO
    TITLE "0:"
    INDEX 01 02:29:17
  TRACK 107 AUDIO
    TITLE "17:cjc019_5003"
    INDEX 01 02:29:68
  TRACK 108 AUDIO
    TITLE "0:"
    INDEX 01 02:31:20
